<svg xmlns="http://www.w3.org/2000/svg" width="24" height="22" viewBox="0 0 24 22">
  <defs>
    <style>
      .cls-1 {
        fill: #ef7f1a;
        fill-rule: evenodd;
      }
    </style>
  </defs>
  <path id="basket_копия" data-name="basket копия" class="cls-1" d="M902.8,1488a0.825,0.825,0,0,0,0,1.65h2.551l2.752,13.38a1.022,1.022,0,0,0,.834.92h13.341a0.825,0.825,0,0,0,0-1.65H909.584l-0.342-1.65h14.1a0.824,0.824,0,0,0,.776-0.65l1.868-8.24a0.86,0.86,0,0,0-.776-1.01H907.216l-0.434-2.1A0.835,0.835,0,0,0,906,1488h-3.2Zm4.752,4.4H912.4v2.47h-4.344Zm6.454,0h3.736v2.47H914v-2.47Zm5.337,0H924.2l-0.558,2.47h-4.3v-2.47Zm-10.94,4.12h4V1499h-3.493Zm5.6,0h3.736V1499H914v-2.48Zm5.337,0h3.927l-0.558,2.48H919.34v-2.48Zm-7.738,7.98a2.751,2.751,0,1,0,2.668,2.75A2.722,2.722,0,0,0,911.6,1504.5Zm8,0a2.751,2.751,0,1,0,2.668,2.75A2.722,2.722,0,0,0,919.607,1504.5Zm-8,1.65a1.1,1.1,0,1,1-1.067,1.1A1.07,1.07,0,0,1,911.6,1506.15Zm8,0a1.1,1.1,0,1,1-1.067,1.1A1.07,1.07,0,0,1,919.607,1506.15Z" transform="translate(-902 -1488)"/>
</svg>
